<svg id="Layer_1" data-name="Layer 1" xmlns="http://www.w3.org/2000/svg" viewBox="0 0 533.93 516"><defs><style>.cls-1{fill:#5c8727;}.cls-2,.cls-5{fill:#fdbb30;}.cls-3{fill:#85b840;}.cls-4{fill:#5c883c;}.cls-5{stroke:#fdbb30;stroke-miterlimit:10;stroke-width:2px;}</style></defs><title>logo</title><path class="cls-1" d="M181,442.68l.14-3.28q6-.77,7.66-2.46,1.06-1.16,1.64-6l.63-17.16.72-17.45q.09-1.59.09-1.93,0-6.8-.79-7.86t-6.19-2.07q-1.35-.29-2.12-.48c-.06-.8-.1-1.48-.1-2v-1.49q1.78-.15,4.19-.14l14.1.48,1.35.1,2.21.1a15.64,15.64,0,0,1,1.67,2.56q1.77,3.53,4.7,10.32l.56,1.29L219,411.52l.79,1.68,1.54,3.28,1.62,3.44,1.57,3.35a27,27,0,0,0,1.3-2.55q1.93-4.43,3.76-8.14,3.18-6.55,8.62-20,.87-2.17,2.87-6.53t2.19-4.6A2.75,2.75,0,0,1,245,381c.32,0,.82,0,1.49,0q2.5-.14,6-.24,5.05,0,8.11-.31t3.44-.27a8.31,8.31,0,0,1,1.15.1q0,.67,0,1.06l-.1,1.45q0,.43,0,1.3a26.52,26.52,0,0,0-7.37,2q-2,1-2,2.41v.72l.83,14.75q.15,2,.78,20.1.14,4,.63,10.26a10.47,10.47,0,0,1,.1,1.2,1.92,1.92,0,0,0,.51,1.5q.46.34,8.65,2.79c0,.51,0,.9,0,1.16q0,1,0,2-1.3,0-6.55-.55a93.88,93.88,0,0,0-9.83-.56q-7,0-13.59.58-.87.1-1.69.15l.09-3.32a26.49,26.49,0,0,1,5.25-1.3q2.31-.39,2.94-1.3c.42-.61.63-2.31.63-5.11,0-1.06,0-2,0-2.8q-.24-5.06-.29-14.07l-.82-17q-.15-3.61-.34-5l-12,27.57c-.29.65-.72,1.57-1.3,2.79q-1.11,2.36-1.49,3.23-3.71,8.92-5.16,13.64-.39,1.2-1.16,3.13l-3.7,0-2.6-7.37q-1.16-2.89-4-8.77-1.64-3.42-2.56-5.54c-.29-.58-.5-1-.63-1.3l-.58-1.2a1.71,1.71,0,0,0-.14-.48l-7.19-15.47-4.39-9.4-.38,22.79L195.45,431q0,3.66,1.37,5.23t5.9,2.67l2.31.58V443q-2.79,0-6-.41a79,79,0,0,0-8.51-.36Q189.43,442.24,181,442.68Z" transform="translate(-100.87 -82.62)"/><path class="cls-1" d="M265.79,403.74c.35-.13.64-.22.87-.29H281l1.06.1.09,3.22-.14,4.72,0,2.45,0,7.27v5a43.1,43.1,0,0,0,.53,7.65,6.06,6.06,0,0,0,2.34,3.2,6.9,6.9,0,0,0,3.93,1.08,11.71,11.71,0,0,0,3.52-.44,12.4,12.4,0,0,0,3.11-1.64,15.54,15.54,0,0,0,2.24-1.73,10.19,10.19,0,0,0,1.93-2.84l.34-12q.1-1.87.1-3.08t-.07-3.15c0-1.27-.07-2-.07-2.14l0-1.78-.1-1.06a7.45,7.45,0,0,0-3.23-.92l-3.23-.24a2.91,2.91,0,0,1-.53-.34,8,8,0,0,1-.19-1.44,13,13,0,0,1,.14-1.64,19.14,19.14,0,0,1,2.75-.24l7.44.1q3,0,7.35-.1l.1,3.61-.19,4.62.1,5.77,0,8.28-.09,3.71,0,2.5q-.19,2.5-.19,2.84a3,3,0,0,0,.43,1.78c.29.39.56.58.82.58l4.43-.14.58.1q.15,1.69.14,1.93a6,6,0,0,1-.14,1.06,23.42,23.42,0,0,0-3.66.34,88.89,88.89,0,0,0-11.28,3.42l-1.93-.1,0-7.86c-.39.32-.95.82-1.69,1.5a29.82,29.82,0,0,1-7.28,5.09,15.78,15.78,0,0,1-6.36,1.32,13.65,13.65,0,0,1-6.84-1.64,10.73,10.73,0,0,1-4.24-4,14.52,14.52,0,0,1-1.35-5.39q-.1-.92-.1-9.43l0-1.54q.24-4.72.24-7,0-3.85-.15-5.15a3.82,3.82,0,0,0-.48-1.44,6.64,6.64,0,0,0-1.59-.43,13.59,13.59,0,0,1-3.85-1c-.16-.09-.24-.3-.24-.62a5.5,5.5,0,0,1,.07-.77C265.67,405,265.72,404.48,265.79,403.74Z" transform="translate(-100.87 -82.62)"/><path class="cls-1" d="M319.57,442.73l-.1-3.13,5.44-.72a2.92,2.92,0,0,0,1.66-1A5.86,5.86,0,0,0,327,435v-.53c0-.39,0-1.08.07-2.1s.07-1.9.07-2.67q0-.92-.15-3.52l.07-2.41-.07-2.26.15-7.85a17,17,0,0,0-.29-3.08,4.2,4.2,0,0,0-1.94-1.25,19.68,19.68,0,0,0-4.9-.77v-2.7a23.38,23.38,0,0,0,8.72-2.07,20.12,20.12,0,0,0,5.54-4.1h3.23q.19,6,.19,15.52l-.34,19.66a31.46,31.46,0,0,0,.19,3.66,29.74,29.74,0,0,0,4.87,1.06,10.4,10.4,0,0,1,2.07.48l-.1,2.65c-.87,0-1.51,0-1.92,0s-1.22,0-2.21-.1q-4.91-.24-13.13-.24-2.36,0-4.57.17T319.57,442.73Zm6.75-57.49A5.73,5.73,0,0,1,328,381a5.91,5.91,0,0,1,4.34-1.66,6.64,6.64,0,0,1,4.72,1.76,5.33,5.33,0,0,1,1.88,4,7.85,7.85,0,0,1-.75,3.28,5.9,5.9,0,0,1-2.36,2.63,6.26,6.26,0,0,1-3.3,1,5.91,5.91,0,0,1-4.27-2A6.48,6.48,0,0,1,326.31,385.24Z" transform="translate(-100.87 -82.62)"/><path class="cls-1" d="M347.66,440.29a3.83,3.83,0,0,1,1.64-.79,14.44,14.44,0,0,0,4.67-1.93q.43-1.15.43-7.79a163.43,163.43,0,0,0-.53-16.46,2.09,2.09,0,0,0-.77-1.35,14.23,14.23,0,0,0-3.28-1.11,1.41,1.41,0,0,1-1.16-1.06l-.14-1.78A15,15,0,0,0,355,405.6a16.81,16.81,0,0,0,4.34-4,12.49,12.49,0,0,1,1.35-1.69l3.37-.1a9,9,0,0,1,.24,1.83q0,.53,0,1.3c0,1.13,0,2.06,0,2.79q0,.53,0,4a46.06,46.06,0,0,1,2.89-4.53,30.38,30.38,0,0,1,2.56-2.36,6.11,6.11,0,0,1,3.71-1.2,6.33,6.33,0,0,1,4.43,1.74,5.31,5.31,0,0,1,1.88,4,6.41,6.41,0,0,1-1.42,4.07,4.57,4.57,0,0,1-3.78,1.81,7.23,7.23,0,0,1-4.34-1.73,4,4,0,0,0-2.17-1.06l-.34,0a3.57,3.57,0,0,0-1.83,1.83,10.06,10.06,0,0,0-1.35,5l.1,1.3q.19,3.55.29,16.67a5.71,5.71,0,0,0,.92,2.4,5.79,5.79,0,0,0,1.76,1,16.14,16.14,0,0,0,3.11.48,5.94,5.94,0,0,1,2.7.61,1.69,1.69,0,0,1,.48,1.34,4.82,4.82,0,0,1-.29,1.42H369l-9.21-.43a62.62,62.62,0,0,0-6.31.29h-.82q-.34,0-5,.24a7.53,7.53,0,0,1-.14-1.19A6.7,6.7,0,0,1,347.66,440.29Z" transform="translate(-100.87 -82.62)"/><path class="cls-1" d="M400.53,383.84l-.24-3a2.23,2.23,0,0,1,.92-.29q4,.26,8,.39l2.12,0q1.73,0,4-.14l6.27-.29a.88.88,0,0,1,.43.53l-.39,2.22q-.92.58-1.78,1-1.93,1.06-1.93,1.74a3.79,3.79,0,0,0,.48,1.59,18.24,18.24,0,0,1,.77,2q.82,2.36,4.63,11.47l12.48,29.11q2.46-4.58,7.66-15.42l-7-17q-2-4.78-3.42-7.86-.48-1-.82-1.93c-.19-.32-.45-.79-.77-1.42a3.86,3.86,0,0,0-1.5-1.54,22.13,22.13,0,0,0-4.85-1.52l.19-2.89q1.54,0,4.24.14,3.91.29,5,.29l6.75-.1,8.34-.48a3.54,3.54,0,0,0,.67,0l0,1.64v.58a2.22,2.22,0,0,1-.19.77,16.36,16.36,0,0,1-2.6.43,3.1,3.1,0,0,0-1.76.53,1.29,1.29,0,0,0-.51,1,8.38,8.38,0,0,0,1,3.52q.44.92,1.16,2.8,2.41,6.17,3.71,9l3.37-7a62.67,62.67,0,0,0,3-7.08,3,3,0,0,0,.14-.82v-.29a4,4,0,0,0-1.06-.87,28.64,28.64,0,0,0-4.1-1.25q-.1-.92-.1-1.4a13,13,0,0,1,.15-1.59q1.59,0,9,.24,4.38.15,5.59.14l1.78,0,1.64,0,.1.39-.15,2.17-.09.24a32.08,32.08,0,0,0-6.22,2.17,6.74,6.74,0,0,0-1.93,2.22q-2.41,4.24-8.92,17.73l.19.44,3.08,7.13,5.25,12.39q.82,1.83,1.16,2.7l6.07-15.91,8.48-21.64,1.35-4a3.14,3.14,0,0,0,.1-.77l-.14-.82c-1.09-.35-2-.62-2.67-.8a6.28,6.28,0,0,1-1.81-.75c-.1-1.06-.14-1.72-.14-2a2.29,2.29,0,0,1,.34-1l.77-.1,7.23.29,4.77-.29,1,.14a9.58,9.58,0,0,1,.14,1.54,2.58,2.58,0,0,1-.34,1.4,1.92,1.92,0,0,1-1,.58,8.37,8.37,0,0,0-2.7,1.83,12.24,12.24,0,0,0-1.5,3.23q-4.19,11.28-8.65,21.74t-13.27,33.3l-4.81,0a17.88,17.88,0,0,0-1.06-2.94q-1.4-3.13-1.64-4l-5.35-12.34q-1.3-3.08-2.12-4.58l-.39-.67q-.1.24-5.11,9.66t-7.33,14.72l-4.92,0a171.16,171.16,0,0,0-6.79-16.29L406.6,391.69q-2.46-5.54-3.52-6.6a4.63,4.63,0,0,0-1.45-.82Z" transform="translate(-100.87 -82.62)"/><path class="cls-1" d="M517,407.6a19.24,19.24,0,0,1,4.61,6.87,20.09,20.09,0,0,1,1.52,7.3,23.33,23.33,0,0,1-2,10.41,20,20,0,0,1-8.06,8.82,23.65,23.65,0,0,1-11.77,2.84,23.07,23.07,0,0,1-12.76-3.37,20.87,20.87,0,0,1-7.48-7.66,22.78,22.78,0,0,1-2.24-10.65,20.74,20.74,0,0,1,1.06-6.48,18.67,18.67,0,0,1,2.92-5.66,20.62,20.62,0,0,1,4.08-4,22.38,22.38,0,0,1,6.49-3.3,27.48,27.48,0,0,1,7.89-1Q511.41,401.67,517,407.6ZM490.7,424.25q.43,6,.63,6.9a17.54,17.54,0,0,0,2,5.55,7.81,7.81,0,0,0,3,2.66,10.42,10.42,0,0,0,5.06,1.16,8.37,8.37,0,0,0,5.93-2.24q2.41-2.24,3.47-7a55,55,0,0,0,.67-10.28q0-8.78-2.89-12.43A9.24,9.24,0,0,0,501,404.9a9.14,9.14,0,0,0-6.15,2.07,11.18,11.18,0,0,0-3.4,6.13Q490.79,415.7,490.7,424.25Z" transform="translate(-100.87 -82.62)"/><path class="cls-1" d="M565.47,407.6a19.26,19.26,0,0,1,4.61,6.87,20.07,20.07,0,0,1,1.52,7.3,23.35,23.35,0,0,1-2,10.41,20,20,0,0,1-8.06,8.82,23.64,23.64,0,0,1-11.77,2.84A23.08,23.08,0,0,1,537,440.46a20.86,20.86,0,0,1-7.48-7.66,22.78,22.78,0,0,1-2.24-10.65,20.77,20.77,0,0,1,1.06-6.48,18.69,18.69,0,0,1,2.92-5.66,20.63,20.63,0,0,1,4.08-4,22.36,22.36,0,0,1,6.49-3.3,27.47,27.47,0,0,1,7.89-1Q559.83,401.67,565.47,407.6Zm-26.35,16.65q.43,6,.63,6.9a17.54,17.54,0,0,0,2,5.55,7.82,7.82,0,0,0,3,2.66,10.42,10.42,0,0,0,5.06,1.16,8.37,8.37,0,0,0,5.93-2.24q2.41-2.24,3.47-7a54.8,54.8,0,0,0,.67-10.28q0-8.78-2.89-12.43a9.24,9.24,0,0,0-7.61-3.64,9.14,9.14,0,0,0-6.15,2.07,11.18,11.18,0,0,0-3.4,6.13Q539.21,415.7,539.12,424.25Z" transform="translate(-100.87 -82.62)"/><path class="cls-1" d="M584.84,405.76a17.9,17.9,0,0,1,4.55-2.36,29.74,29.74,0,0,1,6.19-1.11h2.7a16.54,16.54,0,0,1,10.07,3.62l.1-1.16,0-3.23.19-5.16q0-8.14-1.26-10.31a2.83,2.83,0,0,0-2.53-1.4,7.76,7.76,0,0,1-2.91-.63v-2.31a8.54,8.54,0,0,1,2.36-.31,34.1,34.1,0,0,0,5.64-1l1.64-.34,4.77-1.11a11.93,11.93,0,0,1,1.78-.34,4.8,4.8,0,0,1,.77.1,6.07,6.07,0,0,1,.29,1.49l0,.72v.87q0,1.35.15,7.18v2.6l0,1.4,0,2.41.14,5-.1,2.94q-.1,1.93-.1,6.07,0,.68,0,1.2v1.78q0,.77,0,1.16,0,.72.14,2.07v2.65l0,1q-.1,1.4-.1,3.85t.1,4.53c0,.55,0,1,0,1.49v3.61c0,1.16,0,2.54.1,4.15a11.84,11.84,0,0,0,4.24.77,10.14,10.14,0,0,1,1.88.24,3.89,3.89,0,0,1,.24,1.06,4,4,0,0,1-.34,1.3,32.8,32.8,0,0,1-4.14.72q-6.61.82-9.4,2.31a4.89,4.89,0,0,1-1.88.77,8.73,8.73,0,0,1-1.2-.1c0-.58,0-1,0-1.12a36.37,36.37,0,0,0-.14-4.22c-.48.26-1.08.6-1.78,1a24.88,24.88,0,0,1-5.88,2.7,22.28,22.28,0,0,1-6.07.75q-6.07,0-9.69-2.31a18.29,18.29,0,0,1-7.4-8.1,25.73,25.73,0,0,1-2-10.36Q575.87,412.66,584.84,405.76Zm14.84,31.85q1,.1,1.74.1a9.92,9.92,0,0,0,3.4-.66,20.32,20.32,0,0,0,3.83-1.94c0-1.06,0-1.71,0-2q0-15.28-.43-18.41a10,10,0,0,0-3.18-6.46,9.29,9.29,0,0,0-6.31-2.27,10.61,10.61,0,0,0-4,.77,7.72,7.72,0,0,0-3.11,2.21,14.72,14.72,0,0,0-2.7,4.81,22.21,22.21,0,0,0-1.25,7q0,7.85,3.33,12A12.54,12.54,0,0,0,599.68,437.62Z" transform="translate(-100.87 -82.62)"/><path class="cls-1" d="M178.27,367.77H632.81c3.24,0,2.16-4.3-.63-4.3H177.64c-3.24,0-2.16,4.3.63,4.3Z" transform="translate(-100.87 -82.62)"/><path class="cls-2" d="M178.16,495H614.1c5.62,0,12.21,1,17.77,0a4.86,4.86,0,0,1,.79,0c1.63,0,1.09-2.17-.32-2.17H196.4c-5.62,0-12.21-1-17.77,0a4.86,4.86,0,0,1-.79,0c-1.63,0-1.09,2.17.32,2.17Z" transform="translate(-100.87 -82.62)"/><path class="cls-1" d="M374.35,136c2.85,5.64,5,11,7,15.33,0,0-7.71-24.3-12.59-36.94,2.8,3.77,6.42,12,8.92,19.61,4.39-14.64-3-22.25-14.25-34C361.05,108.88,356.71,124.58,374.35,136Z" transform="translate(-100.87 -82.62)"/><path class="cls-1" d="M373.89,192.41a62.79,62.79,0,0,0,11.36,16.42S376.48,194,369.38,168c2.8,5.21,7,14.7,11,23.23,7.06-21-9.57-34.25-14.29-46.16C366.14,145.08,348.55,177.48,373.89,192.41Z" transform="translate(-100.87 -82.62)"/><path class="cls-1" d="M341.54,163.92c-.42-12.15-5.23-27.73-5.23-27.73,3.49,6,6.32,12.33,8.75,27.75s5,23,8.87,29.18c2.23,1.37,5.94,3.64,8.16,5-7.07-10.44-12.18-21.43-13.34-29.22-.74-2.79-.47-4.57.31-7.58,5.63-21.85-13.07-36.56-20.8-41.11C329,133.12,322.05,154.91,341.54,163.92Z" transform="translate(-100.87 -82.62)"/><path class="cls-1" d="M432.63,219.24c13.77-18.86-7.39-30.23-10.16-41.83,0,0-15.33,31.58,4.37,45a88.21,88.21,0,0,0,.28-21.44c4.54,13.48,2.55,30.86,1.94,33.21C430.83,232,432,225.95,432.63,219.24Z" transform="translate(-100.87 -82.62)"/><path class="cls-1" d="M279,198.89a77,77,0,0,0-15.08-13.41c4,1.52,8.27,4,14.84,9.33a56.55,56.55,0,0,0,19,9.91c-4.31-2.46-10.18-5.91-14.37-9.77-3.46-11.71-14-17.49-28.15-16.72C255.22,178.23,258,197.77,279,198.89Z" transform="translate(-100.87 -82.62)"/><path class="cls-1" d="M481.38,173.15c3.3-13.94,7.06-27.25,12.7-36.49,0,0-2.7,6.94-6.68,20.14,14.87-6.08,12.66-25.65,15.61-36.75,0,0-31.47,13.1-20.21,36C481.63,160.59,480.65,168.75,481.38,173.15Z" transform="translate(-100.87 -82.62)"/><path class="cls-1" d="M433.44,178.63c6.39-32.31,20.92-46.22,22.43-47.43a101,101,0,0,0-14.15,29.41c22.41-4.91,24.35-36.7,24.51-50.12-4.42,9.19-39,12.23-30.34,46.86A64.22,64.22,0,0,0,433.44,178.63Z" transform="translate(-100.87 -82.62)"/><path class="cls-1" d="M311.27,201.73c2.95,17.69,14.71,25.33,27.27,24.84a33.36,33.36,0,0,0,16.85,1.32c-11,0-23.56-6.29-31.73-14a113.53,113.53,0,0,0,17,8.85C336.48,203.08,317.24,208.24,311.27,201.73Z" transform="translate(-100.87 -82.62)"/><path class="cls-1" d="M471.26,241.81c5.65-2.36,10.35-4.44,14.47-6.59,24.1-3.39,23.6-25.6,23.6-25.6-6.76,6.67-27.82,5.05-28,22.3A176.4,176.4,0,0,0,499,221.48C495.21,225.75,488.36,230.82,471.26,241.81Z" transform="translate(-100.87 -82.62)"/><path class="cls-1" d="M567.94,364.62c-35.06-3.21-89.27-9.85-104.17-12.35-12.44-2.09-26.83-11.2-27.16-27.68-.39-20.17,14-45.3,38.44-55.88,20.37-9.83,46.71-4.86,69-.07,27.72,20,44,.53,49.05-8.12-8.76,3.07-33.59-10.55-47.41,3,24.42,9,33.42,3.94,33.42,3.94-9.64,10.9-49.46-8.8-74.75-12.93-3.72-.61-1.85-2.83-.36-3.53,4.19-2,8.77-5,12.87-7.22,46.33,5.79,61.18-33.91,65.48-57.64-9.84,12.81-70.51,11.54-69.87,48,19.76-7.43,47.11-22.41,47.11-22.41-2.74,2-5.2,3.72-7.6,5.39-41.3,27.77-82.1,40-98.6,45.56-2.83,1-6.67,5-8.19,8.52-4.18,9.7-7.16,11.57-5.73,6,6.2-24.31,20.2-52.26,51.94-78,44.24-3.67,45.13-22.58,48.28-59.69-12.46,18.23-48.67,9.83-50.82,52.31a165.72,165.72,0,0,0,30-14.67c-3.67,7.53-37.62,19.47-55.4,37.53-.85.86-2.11-.34-1.86-1.72a100.16,100.16,0,0,0,1.4-10.42c13.92-13.27,9.32-29.58-1.29-43.52-4.53,8.92-21,26.29-4.27,42.78a131.12,131.12,0,0,0,5.77-22.5c0,5.62-.41,26.54-11.47,46.85a148.76,148.76,0,0,0-20.72,29c-2,3.71-4,3.23-6,1.72-4.18-3.21-9.36-8.49-14.13-13.16-3.79-4.37-8-11.82-8.73-15.6-4.73-23.12-2.61-42.93,1.06-61.22,32.44-28.81,19.25-61.6,9.76-84.28,1.57,15.28-38.22,34.38-15,74.25,4.44-17,10.24-23.65,14.8-44.69-2.14,26.6-23.94,72.5-19.9,111.33.13,1.23-.33,2.35-2.51.55-23.34-19.19-67-42.63-77.59-51.21S293,158.12,287.08,150.47c0,0,30.9,23.63,42.4,28.75-6.71-32.48-43.77-33.9-53.57-48.05,0,0-8.77,60.55,55.35,58.23,17.64,13,34.58,26.56,47.51,46.54a13.19,13.19,0,0,0,7.74,5.42c5.65,1.65,17.68,7.47,21.43,12.07.58.72,0,1.38-.85,1-10.47-4.74-24.8-10-38.78-11.14-23.19-1.91-46.53,7.66-60.38,13.64-29.3,12.65-70.14-8.87-76.26-32.5,0,0,9.87,23.65,46.49,30.83-3.23-33.9-52-47.76-59.38-56.92,0,0-14.71,57.81,50.36,64.15a118.91,118.91,0,0,0,13.64,4.18c1.64.4,2.78,1.59.73,2.53-30.53,14-40.72,9.32-48.13,6.43,0,0,11.27,2.74,26-1.55-11.24-13.33-31-6.61-44.3-11.7,0,0,9.18,32.83,47.77,17.56,34.22-5.74,65-28.44,96.75-18.7,23.21,5.62,29.24,22.82,29.08,41-.16,20.2-27.43,46-42.16,49.67-17.88,4.47-79.91,11.83-104.61,12.71" transform="translate(-100.87 -82.62)"/><path class="cls-1" d="M307,278.43c-22.45,2.54-20.52,24-26.6,30.21,24.52-4.24,31.25-10.57,31.23-26.85A40.86,40.86,0,0,1,324.47,273c-12.29,3.14-27.28,17.31-31.22,22.9C293.25,295.86,299.24,285.68,307,278.43Z" transform="translate(-100.87 -82.62)"/><path class="cls-1" d="M268.69,206.19c1.6,27.19,28.87,39.83,40.7,32.9,10,.29,19.2-.22,26.47-2.69-38.16,2.26-46.14-6.74-51.18-13.22,0,0,9.07,8.85,26.68,9.69C304.24,214,276.28,213.75,268.69,206.19Z" transform="translate(-100.87 -82.62)"/><path class="cls-2" d="M580.81,324.24c-14.16-3.77-32.62-53.8-73.12-39.62-16.09-2.51-30.08-4-34.11-1.61,55.75,9,76.29,29.1,78.56,31.41,0,0-15.59-12.29-49.9-20.62C502.93,310.28,523.21,337.47,580.81,324.24Z" transform="translate(-100.87 -82.62)"/><path class="cls-3" d="M189.92,461.29q0-1.09-.56-1.08h-4.27a1.37,1.37,0,0,0-.91.25,3.1,3.1,0,0,0-.59.8,4.88,4.88,0,0,0-.26.54q-.16.37-.26.58a1.74,1.74,0,0,1-.26.38.45.45,0,0,1-.33.17q-.63,0-.63-.8a7.59,7.59,0,0,1,.09-1,8.92,8.92,0,0,0,.09-1.22c0-.21,0-.5,0-.87s0-.61,0-.7a1.08,1.08,0,0,1,.17-.61.5.5,0,0,1,.42-.26,7.55,7.55,0,0,1,1.16.53,4.8,4.8,0,0,0,2.17.52h12.21a5,5,0,0,0,2.45-.59,1.84,1.84,0,0,0,.33-.23,1.62,1.62,0,0,1,.35-.23.82.82,0,0,1,.33-.07.59.59,0,0,1,.45.19.63.63,0,0,1,.18.44q0,.1-.07.58a6.24,6.24,0,0,0-.07.93q0,.49,0,1.38t0,1q0,.81-.49.8t-1.26-1.58q-.6-1-1.26-1h-5.42q-.42,0-.42,1.08v13.58a2.77,2.77,0,0,0,.39,1.56,2.82,2.82,0,0,0,1.26,1,6.89,6.89,0,0,0,.79.3,5.26,5.26,0,0,1,.86.35.46.46,0,0,1,.28.4q0,.49-1.12.6l-.79-.05-1.71-.11q-1-.05-1.73-.05t-1.66.05l-1.58.11-.72.05q-1.16-.11-1.15-.6a.46.46,0,0,1,.28-.4,5.26,5.26,0,0,1,.86-.35,6.85,6.85,0,0,0,.79-.3,2.82,2.82,0,0,0,1.26-1,2.77,2.77,0,0,0,.39-1.56Z" transform="translate(-100.87 -82.62)"/><path class="cls-3" d="M216,470.36a28.16,28.16,0,0,0,6.54,7.25,4.16,4.16,0,0,0,2,.56q.59.07.59.59t-.73.75a4.57,4.57,0,0,1-1.71.3,5.8,5.8,0,0,1-4.45-1.64,39.91,39.91,0,0,1-5.53-7.28q-.7-1.16-2.9-1.16a1.09,1.09,0,0,0-.77.21,1,1,0,0,0-.21.74v4.2a2.77,2.77,0,0,0,.38,1.56,2.82,2.82,0,0,0,1.26,1,6.89,6.89,0,0,0,.79.3,5.26,5.26,0,0,1,.86.35.46.46,0,0,1,.28.4q0,.49-1.12.6l-.79-.05-1.71-.11q-1-.05-1.73-.05t-1.56.05l-1.56.11-.73.05q-1.16-.11-1.15-.6a.46.46,0,0,1,.28-.4,5.26,5.26,0,0,1,.86-.35,6.85,6.85,0,0,0,.79-.3,2.82,2.82,0,0,0,1.26-1,2.77,2.77,0,0,0,.39-1.56V462.24q0-.31,0-.58a1.39,1.39,0,0,0-.12-.49c-.07-.15-.12-.27-.16-.37a.65.65,0,0,0-.26-.28,2,2,0,0,1-.28-.21,1.44,1.44,0,0,0-.4-.19l-.46-.16-.56-.16-.61-.16q-.56-.17-.56-.59t1.23-.63q4.41-.35,7.63-.35a10.35,10.35,0,0,1,5.22,1.28,4.06,4.06,0,0,1,2.24,3.73,5.89,5.89,0,0,1-2.77,4.9l-.28.19-.19.14a.47.47,0,0,0-.09.12.38.38,0,0,0,0,.17A4.35,4.35,0,0,0,216,470.36Zm-5.74-1.89a6,6,0,0,0,1.56-.21,2.15,2.15,0,0,0,1-.49A5.37,5.37,0,0,0,215,463.6a3.62,3.62,0,0,0-1.31-2.85,4.58,4.58,0,0,0-3.1-1.14,2.13,2.13,0,0,0-1.24.35,1,1,0,0,0-.51.84v6.75Q208.82,468.47,210.25,468.47Z" transform="translate(-100.87 -82.62)"/><path class="cls-3" d="M243.71,461.75v8.47a8.87,8.87,0,0,1-2.42,6.51,8.45,8.45,0,0,1-6.3,2.45q-4.41,0-6.14-2.26t-1.73-6.63V462.1a2.45,2.45,0,0,0-.38-1.63,6,6,0,0,0-2.06-1c-.37-.12-.56-.32-.56-.59s.13-.34.38-.46a2,2,0,0,1,.84-.17,11.85,11.85,0,0,1,1.42.09,11.11,11.11,0,0,0,1.35.09q.63,0,2-.09t2-.09a2,2,0,0,1,.84.17q.39.18.39.46c0,.28-.18.48-.52.59a4.53,4.53,0,0,0-1.77.95,2.09,2.09,0,0,0-.58,1.57v7q0,4.45,1.1,6.42t4.18,2q3.39,0,4.69-2.31a14.19,14.19,0,0,0,1.29-6.79v-6.51a3.14,3.14,0,0,0-.21-1.33,1.09,1.09,0,0,0-.44-.52q-.23-.11-1.21-.42-.6-.21-.6-.63t.39-.46a2,2,0,0,1,.84-.17q.28,0,1.16.09t1.12.09q.24,0,1.12-.09t1.12-.09a2,2,0,0,1,.84.17q.39.18.39.46t-.6.59a3.54,3.54,0,0,0-1.57.8A2.27,2.27,0,0,0,243.71,461.75Z" transform="translate(-100.87 -82.62)"/><path class="cls-3" d="M253.83,457.93a7.32,7.32,0,0,1,3.53.91q1,.52,1.05,1a11.23,11.23,0,0,1,.14,2q0,.94-.7.95t-1.4-1.61a1.8,1.8,0,0,0-1.08-.93,4.54,4.54,0,0,0-1.68-.33,2.85,2.85,0,0,0-2,.8,2.59,2.59,0,0,0-.86,2,4.08,4.08,0,0,0,1.79,2.94l4.94,4.17a4.44,4.44,0,0,1,1.68,3.57,5.29,5.29,0,0,1-2.15,4.23,7.53,7.53,0,0,1-4.88,1.75,8.73,8.73,0,0,1-3.68-.77,7.85,7.85,0,0,1-1.31-.68.7.7,0,0,1-.3-.58,16.07,16.07,0,0,1,.21-2.42q.14-.84.67-.84.7,0,1.19,1.65a3,3,0,0,0,1.31,1.63,4.43,4.43,0,0,0,2.47.65,2.75,2.75,0,0,0,2.17-1,3.49,3.49,0,0,0,.88-2.34,3.58,3.58,0,0,0-1.4-2.8l-4.73-4a5.11,5.11,0,0,1-2.06-4,5.51,5.51,0,0,1,1.82-4.17A6.2,6.2,0,0,1,253.83,457.93Z" transform="translate(-100.87 -82.62)"/><path class="cls-3" d="M269.33,461.29q0-1.09-.56-1.08H264.5a1.37,1.37,0,0,0-.91.25,3.1,3.1,0,0,0-.59.8,4.88,4.88,0,0,0-.26.54q-.16.37-.26.58a1.74,1.74,0,0,1-.26.38.45.45,0,0,1-.33.17q-.63,0-.63-.8a7.59,7.59,0,0,1,.09-1,8.92,8.92,0,0,0,.09-1.22c0-.21,0-.5,0-.87s0-.61,0-.7a1.08,1.08,0,0,1,.17-.61.5.5,0,0,1,.42-.26,7.55,7.55,0,0,1,1.16.53,4.8,4.8,0,0,0,2.17.52h12.21a5,5,0,0,0,2.45-.59,1.84,1.84,0,0,0,.33-.23,1.62,1.62,0,0,1,.35-.23.82.82,0,0,1,.33-.07.59.59,0,0,1,.45.19.63.63,0,0,1,.18.44q0,.1-.07.58a6.24,6.24,0,0,0-.07.93q0,.49,0,1.38t0,1q0,.81-.49.8t-1.26-1.58q-.6-1-1.26-1h-5.42q-.42,0-.42,1.08v13.58a2.77,2.77,0,0,0,.39,1.56,2.82,2.82,0,0,0,1.26,1,6.89,6.89,0,0,0,.79.3,5.26,5.26,0,0,1,.86.35.46.46,0,0,1,.28.4q0,.49-1.12.6l-.79-.05-1.71-.11q-1-.05-1.73-.05t-1.66.05l-1.58.11-.72.05q-1.16-.11-1.15-.6a.46.46,0,0,1,.28-.4,5.26,5.26,0,0,1,.86-.35,6.85,6.85,0,0,0,.79-.3,2.82,2.82,0,0,0,1.26-1,2.77,2.77,0,0,0,.39-1.56Z" transform="translate(-100.87 -82.62)"/><path class="cls-3" d="M288.34,466.51q0,1.09.8,1.08h3a2.84,2.84,0,0,0,.93-.14,2,2,0,0,0,.6-.3l.61-.54.33-.37a2.37,2.37,0,0,1,.4-.38.61.61,0,0,1,.35-.12c.26,0,.39.23.39.7q0,.11-.07.93t-.07,1.1q0,.28,0,1t0,.95q0,.91-.46.91a.46.46,0,0,1-.28-.11,1.19,1.19,0,0,1-.26-.28l-.21-.31-.21-.37a1.76,1.76,0,0,0-.16-.26,1.39,1.39,0,0,0-1.23-.74h-3.67a.68.68,0,0,0-.84.84V476a1.51,1.51,0,0,0,.3,1,1.34,1.34,0,0,0,1,.33h4.9a6.84,6.84,0,0,0,1.61-.16,2.23,2.23,0,0,0,1.12-.7,5.61,5.61,0,0,0,.72-.95q.23-.4.72-1.45a1,1,0,0,1,.94-.67q.49,0,.49.88a7.16,7.16,0,0,1-.52,2.12,12.55,12.55,0,0,1-.8,1.91l-.25.42a.52.52,0,0,1-.25.17,1.24,1.24,0,0,1-.46.07l-4.76-.09q-4.41-.09-6.58-.09c-.49,0-1,0-1.66,0s-1.14.05-1.58.09l-.72.05q-1.16-.11-1.15-.6a.46.46,0,0,1,.28-.4,5.26,5.26,0,0,1,.86-.35,6.85,6.85,0,0,0,.79-.3,2.82,2.82,0,0,0,1.26-1,2.77,2.77,0,0,0,.39-1.56V462.1q0-.31,0-.58a1.39,1.39,0,0,0-.12-.49c-.07-.15-.12-.27-.16-.37a.64.64,0,0,0-.26-.28,2,2,0,0,1-.28-.21,1.41,1.41,0,0,0-.4-.19l-.46-.16-.56-.16-.61-.16c-.37-.12-.56-.32-.56-.59s.41-.63,1.23-.63h10q.84,0,2.4-.09l1.77-.09q.8,0,.91.49a11.88,11.88,0,0,1,.31,2.87q0,.91-.56.91T296.42,461q-.56-1.16-2.83-1.16h-4.17a1.48,1.48,0,0,0-.87.17.69.69,0,0,0-.21.56Z" transform="translate(-100.87 -82.62)"/><path class="cls-3" d="M312.45,458a13.71,13.71,0,0,1,5.62,1.17,10.91,10.91,0,0,1,4.36,3.45,8.33,8.33,0,0,1,1.71,5.14,13.85,13.85,0,0,1-.67,4.34,11.22,11.22,0,0,1-2,3.62,8.89,8.89,0,0,1-3.43,2.52,12.11,12.11,0,0,1-4.87.93q-1.89,0-4-.19t-2.75-.19q-.7,0-1.63.05l-1.58.11-.72.05q-1.16-.11-1.15-.6a.46.46,0,0,1,.28-.4,5.26,5.26,0,0,1,.86-.35,6.85,6.85,0,0,0,.79-.3,2.56,2.56,0,0,0,1.65-2.52V462.1a3.65,3.65,0,0,0-.05-.67q-.05-.28-.1-.49a.78.78,0,0,0-.24-.38,2.91,2.91,0,0,1-.28-.28,1.09,1.09,0,0,0-.42-.23l-.47-.17-.61-.17-.68-.19c-.37-.12-.56-.32-.56-.59s.41-.63,1.23-.63l1.42,0,1.38,0q1.08,0,3.46-.14T312.45,458Zm-4.2,2.69v13.93a2.48,2.48,0,0,0,1.07,2.38q1.07.59,4.53.59a5.25,5.25,0,0,0,4.66-2.76,11.84,11.84,0,0,0,1.71-6.37,8.53,8.53,0,0,0-2.59-6.35,8.71,8.71,0,0,0-6.33-2.54,6.89,6.89,0,0,0-2.14.3Q308.25,460.21,308.25,460.73Z" transform="translate(-100.87 -82.62)"/><path class="cls-3" d="M342.27,461.29q0-1.09-.56-1.08h-4.27a1.37,1.37,0,0,0-.91.25,3.1,3.1,0,0,0-.59.8,4.88,4.88,0,0,0-.26.54q-.16.37-.26.58a1.74,1.74,0,0,1-.26.38.45.45,0,0,1-.33.17q-.63,0-.63-.8a7.59,7.59,0,0,1,.09-1,8.92,8.92,0,0,0,.09-1.22c0-.21,0-.5,0-.87s0-.61,0-.7a1.08,1.08,0,0,1,.17-.61.5.5,0,0,1,.42-.26A7.55,7.55,0,0,1,336,458a4.8,4.8,0,0,0,2.17.52h12.21a5,5,0,0,0,2.45-.59,1.84,1.84,0,0,0,.33-.23,1.62,1.62,0,0,1,.35-.23.82.82,0,0,1,.33-.07.59.59,0,0,1,.45.19.63.63,0,0,1,.18.44q0,.1-.07.58a6.24,6.24,0,0,0-.07.93q0,.49,0,1.38t0,1q0,.81-.49.8t-1.26-1.58q-.6-1-1.26-1H346q-.42,0-.42,1.08v13.58a2.77,2.77,0,0,0,.39,1.56,2.82,2.82,0,0,0,1.26,1,6.89,6.89,0,0,0,.79.3,5.26,5.26,0,0,1,.86.35.46.46,0,0,1,.28.4q0,.49-1.12.6l-.79-.05-1.71-.11q-1-.05-1.73-.05t-1.66.05l-1.58.11-.72.05q-1.16-.11-1.15-.6a.46.46,0,0,1,.28-.4,5.26,5.26,0,0,1,.86-.35,6.85,6.85,0,0,0,.79-.3,2.82,2.82,0,0,0,1.26-1,2.77,2.77,0,0,0,.39-1.56Z" transform="translate(-100.87 -82.62)"/><path class="cls-3" d="M361.28,466.51q0,1.09.8,1.08h3a2.84,2.84,0,0,0,.93-.14,2,2,0,0,0,.6-.3l.61-.54.33-.37a2.37,2.37,0,0,1,.4-.38.61.61,0,0,1,.35-.12c.26,0,.39.23.39.7q0,.11-.07.93t-.07,1.1q0,.28,0,1t0,.95q0,.91-.46.91a.46.46,0,0,1-.28-.11,1.19,1.19,0,0,1-.26-.28l-.21-.31-.21-.37A1.76,1.76,0,0,0,367,470a1.39,1.39,0,0,0-1.23-.74h-3.67a.68.68,0,0,0-.84.84V476a1.51,1.51,0,0,0,.3,1,1.34,1.34,0,0,0,1,.33h4.9a6.84,6.84,0,0,0,1.61-.16,2.23,2.23,0,0,0,1.12-.7,5.61,5.61,0,0,0,.72-.95q.23-.4.72-1.45a1,1,0,0,1,.94-.67q.49,0,.49.88a7.16,7.16,0,0,1-.52,2.12,12.55,12.55,0,0,1-.8,1.91l-.25.42a.52.52,0,0,1-.25.17,1.24,1.24,0,0,1-.46.07l-4.76-.09q-4.41-.09-6.58-.09c-.49,0-1,0-1.66,0s-1.14.05-1.58.09l-.72.05q-1.16-.11-1.15-.6a.46.46,0,0,1,.28-.4,5.26,5.26,0,0,1,.86-.35,6.85,6.85,0,0,0,.79-.3,2.82,2.82,0,0,0,1.26-1,2.77,2.77,0,0,0,.39-1.56V462.1q0-.31,0-.58a1.39,1.39,0,0,0-.12-.49c-.07-.15-.12-.27-.16-.37a.64.64,0,0,0-.26-.28,2,2,0,0,1-.28-.21,1.41,1.41,0,0,0-.4-.19l-.46-.16-.56-.16-.61-.16c-.37-.12-.56-.32-.56-.59s.41-.63,1.23-.63h10q.84,0,2.4-.09l1.77-.09q.8,0,.91.49a11.88,11.88,0,0,1,.31,2.87q0,.91-.56.91T369.36,461q-.56-1.16-2.83-1.16h-4.17a1.48,1.48,0,0,0-.87.17.69.69,0,0,0-.21.56Z" transform="translate(-100.87 -82.62)"/><path class="cls-3" d="M381.19,466.51q0,1.09.8,1.08h3a2.84,2.84,0,0,0,.93-.14,2,2,0,0,0,.6-.3l.61-.54.33-.37a2.37,2.37,0,0,1,.4-.38.61.61,0,0,1,.35-.12c.26,0,.39.23.39.7q0,.11-.07.93t-.07,1.1q0,.28,0,1t0,.95q0,.91-.46.91a.46.46,0,0,1-.28-.11,1.19,1.19,0,0,1-.26-.28l-.21-.31-.21-.37a1.76,1.76,0,0,0-.16-.26,1.39,1.39,0,0,0-1.23-.74H382a.68.68,0,0,0-.84.84V476a1.51,1.51,0,0,0,.3,1,1.34,1.34,0,0,0,1,.33h4.9a6.84,6.84,0,0,0,1.61-.16,2.23,2.23,0,0,0,1.12-.7,5.61,5.61,0,0,0,.72-.95q.23-.4.72-1.45a1,1,0,0,1,.94-.67q.49,0,.49.88a7.16,7.16,0,0,1-.52,2.12,12.55,12.55,0,0,1-.8,1.91l-.25.42a.52.52,0,0,1-.25.17,1.24,1.24,0,0,1-.46.07l-4.76-.09q-4.41-.09-6.58-.09c-.49,0-1,0-1.66,0s-1.14.05-1.58.09l-.72.05q-1.16-.11-1.15-.6a.46.46,0,0,1,.28-.4,5.26,5.26,0,0,1,.86-.35,6.85,6.85,0,0,0,.79-.3,2.82,2.82,0,0,0,1.26-1,2.77,2.77,0,0,0,.39-1.56V462.1q0-.31,0-.58a1.39,1.39,0,0,0-.12-.49c-.07-.15-.12-.27-.16-.37a.64.64,0,0,0-.26-.28,2,2,0,0,1-.28-.21,1.41,1.41,0,0,0-.4-.19l-.46-.16-.56-.16-.61-.16c-.37-.12-.56-.32-.56-.59s.41-.63,1.23-.63h10q.84,0,2.4-.09l1.77-.09q.8,0,.91.49a11.88,11.88,0,0,1,.31,2.87q0,.91-.56.91T389.28,461q-.56-1.16-2.83-1.16h-4.17a1.48,1.48,0,0,0-.87.17.69.69,0,0,0-.21.56Z" transform="translate(-100.87 -82.62)"/><path class="cls-3" d="M399.36,474.45a2.89,2.89,0,0,0,1.65,2.94,6.76,6.76,0,0,0,.79.3,5.3,5.3,0,0,1,.86.35.46.46,0,0,1,.28.4q0,.49-1.12.6l-.6-.05-1.33-.11q-.81-.05-1.54-.05t-1.47.05l-1.21.11-.54.05q-1.16-.11-1.15-.6a.46.46,0,0,1,.28-.4,5.26,5.26,0,0,1,.86-.35,6.82,6.82,0,0,0,.79-.3,2.89,2.89,0,0,0,1.65-2.94v-9.14q0-2.8-.49-3.39l-1.3-1.4a4.2,4.2,0,0,0-.86-.63l-.89-.54a.63.63,0,0,1-.35-.51q0-.39.73-.38h3.68q.7,0,1.85,1.26l11.65,13.09a1.94,1.94,0,0,0,.46.4.36.36,0,0,0,.37,0c.1-.06.16-.2.16-.44V462.1a4,4,0,0,0-.05-.68c0-.2-.07-.37-.1-.51a.78.78,0,0,0-.25-.39,2.65,2.65,0,0,1-.26-.26,1.21,1.21,0,0,0-.42-.23l-.47-.18-.63-.17-.68-.17c-.37-.12-.56-.32-.56-.59s.13-.34.38-.46a2,2,0,0,1,.84-.17q.7,0,1.63.09t1.56.09q.63,0,1.59-.09t1.56-.09a2,2,0,0,1,.84.17c.26.12.38.27.38.46s-.18.48-.53.59l-.61.17-.56.14-.46.14a1.45,1.45,0,0,0-.4.19l-.3.21a.66.66,0,0,0-.26.28l-.16.37a2,2,0,0,0-.12.47,4.68,4.68,0,0,0,0,.61v14q0,.91.05,1.7c0,.52.05.92.05,1.17s-.23.42-.7.42a2.85,2.85,0,0,1-1.21-.56,9.72,9.72,0,0,1-1.77-1.54L400,465.18q-.67-.74-.67.35Z" transform="translate(-100.87 -82.62)"/><path class="cls-3" d="M434,461.29q0-1.09-.56-1.08h-4.27a1.37,1.37,0,0,0-.91.25,3.09,3.09,0,0,0-.6.8,5,5,0,0,0-.26.54q-.16.37-.26.58a1.72,1.72,0,0,1-.26.38.45.45,0,0,1-.33.17q-.63,0-.63-.8a7.6,7.6,0,0,1,.09-1,9,9,0,0,0,.09-1.22c0-.21,0-.5,0-.87s0-.61,0-.7a1.08,1.08,0,0,1,.17-.61.5.5,0,0,1,.42-.26,7.55,7.55,0,0,1,1.16.53,4.8,4.8,0,0,0,2.17.52h12.21a5,5,0,0,0,2.45-.59,1.83,1.83,0,0,0,.33-.23,1.61,1.61,0,0,1,.35-.23.82.82,0,0,1,.33-.07.59.59,0,0,1,.46.19.63.63,0,0,1,.17.44q0,.1-.07.58a6.31,6.31,0,0,0-.07.93q0,.49,0,1.38c0,.6,0,.94,0,1q0,.81-.49.8t-1.26-1.58q-.6-1-1.26-1h-5.43q-.42,0-.42,1.08v13.58a2.77,2.77,0,0,0,.38,1.56,2.82,2.82,0,0,0,1.26,1,6.83,6.83,0,0,0,.79.3,5.26,5.26,0,0,1,.86.35.46.46,0,0,1,.28.4q0,.49-1.12.6L439,479l-1.72-.11q-1-.05-1.73-.05t-1.66.05l-1.58.11-.72.05q-1.15-.11-1.15-.6a.46.46,0,0,1,.28-.4,5.24,5.24,0,0,1,.86-.35,6.83,6.83,0,0,0,.79-.3,2.82,2.82,0,0,0,1.26-1,2.77,2.77,0,0,0,.38-1.56Z" transform="translate(-100.87 -82.62)"/><path class="cls-3" d="M460.11,470.36a28.17,28.17,0,0,0,6.54,7.25,4.16,4.16,0,0,0,2,.56q.59.07.59.59t-.73.75a4.58,4.58,0,0,1-1.72.3,5.8,5.8,0,0,1-4.44-1.64,39.87,39.87,0,0,1-5.53-7.28q-.7-1.16-2.91-1.16a1.09,1.09,0,0,0-.77.21,1,1,0,0,0-.21.74v4.2a2.77,2.77,0,0,0,.38,1.56,2.82,2.82,0,0,0,1.26,1,6.87,6.87,0,0,0,.79.3,5.3,5.3,0,0,1,.86.35.46.46,0,0,1,.28.4q0,.49-1.12.6l-.79-.05-1.71-.11q-1-.05-1.73-.05t-1.56.05L448,479l-.73.05q-1.16-.11-1.16-.6a.46.46,0,0,1,.28-.4,5.18,5.18,0,0,1,.86-.35,6.83,6.83,0,0,0,.79-.3,2.82,2.82,0,0,0,1.26-1,2.77,2.77,0,0,0,.38-1.56V462.24q0-.31,0-.58a1.4,1.4,0,0,0-.12-.49c-.07-.15-.12-.27-.16-.37a.65.65,0,0,0-.26-.28,2.07,2.07,0,0,1-.28-.21,1.43,1.43,0,0,0-.4-.19L448,460l-.56-.16-.61-.16q-.56-.17-.56-.59t1.23-.63q4.41-.35,7.63-.35a10.35,10.35,0,0,1,5.21,1.28,4.06,4.06,0,0,1,2.24,3.73,5.89,5.89,0,0,1-2.77,4.9l-.28.19-.19.14a.48.48,0,0,0-.09.12.39.39,0,0,0,0,.17A4.34,4.34,0,0,0,460.11,470.36Zm-5.74-1.89a6,6,0,0,0,1.56-.21,2.14,2.14,0,0,0,1-.49,5.37,5.37,0,0,0,2.14-4.17,3.62,3.62,0,0,0-1.31-2.85,4.58,4.58,0,0,0-3.1-1.14,2.14,2.14,0,0,0-1.24.35,1,1,0,0,0-.51.84v6.75Q452.94,468.47,454.37,468.47Z" transform="translate(-100.87 -82.62)"/><path class="cls-3" d="M475.83,466.51q0,1.09.81,1.08h3a2.84,2.84,0,0,0,.93-.14,2,2,0,0,0,.59-.3l.61-.54.33-.37a2.35,2.35,0,0,1,.4-.38.6.6,0,0,1,.35-.12c.26,0,.38.23.38.7q0,.11-.07.93t-.07,1.1q0,.28,0,1t0,.95q0,.91-.46.91a.46.46,0,0,1-.28-.11,1.2,1.2,0,0,1-.26-.28l-.21-.31-.21-.37a1.73,1.73,0,0,0-.16-.26,1.39,1.39,0,0,0-1.22-.74h-3.68a.68.68,0,0,0-.84.84V476a1.52,1.52,0,0,0,.3,1,1.34,1.34,0,0,0,1,.33h4.9a6.84,6.84,0,0,0,1.61-.16,2.22,2.22,0,0,0,1.12-.7,5.59,5.59,0,0,0,.72-.95q.23-.4.72-1.45a1,1,0,0,1,.94-.67q.49,0,.49.88a7.17,7.17,0,0,1-.52,2.12,12.52,12.52,0,0,1-.81,1.91l-.25.42a.52.52,0,0,1-.24.17,1.24,1.24,0,0,1-.46.07l-4.76-.09q-4.41-.09-6.58-.09c-.49,0-1,0-1.66,0s-1.14.05-1.58.09l-.72.05q-1.16-.11-1.16-.6a.46.46,0,0,1,.28-.4,5.18,5.18,0,0,1,.86-.35,6.83,6.83,0,0,0,.79-.3,2.82,2.82,0,0,0,1.26-1,2.77,2.77,0,0,0,.38-1.56V462.1q0-.31,0-.58a1.4,1.4,0,0,0-.12-.49c-.07-.15-.12-.27-.16-.37a.65.65,0,0,0-.26-.28,2.07,2.07,0,0,1-.28-.21,1.4,1.4,0,0,0-.4-.19l-.46-.16-.56-.16-.61-.16c-.37-.12-.56-.32-.56-.59s.41-.63,1.23-.63h10q.84,0,2.4-.09l1.77-.09q.8,0,.91.49a11.88,11.88,0,0,1,.32,2.87c0,.61-.19.91-.56.91s-.86-.44-1.26-1.33-1.32-1.16-2.83-1.16h-4.17a1.49,1.49,0,0,0-.87.17.69.69,0,0,0-.21.56Z" transform="translate(-100.87 -82.62)"/><path class="cls-3" d="M506.45,478.83q-1.29,0-2.8.1t-1.89.11a1.89,1.89,0,0,1-.75-.16q-.37-.16-.37-.44a.46.46,0,0,1,.26-.4,4.55,4.55,0,0,1,.84-.35,6.83,6.83,0,0,0,.79-.3q1.37-.63,1-1.85l-1-3.33a.55.55,0,0,0-.56-.42h-5.84a.54.54,0,0,0-.56.38L494.24,476a1,1,0,0,0,.77,1.47q1.29.35,1.29,1t-1.23.6q-.35,0-1.45-.11t-1.42-.1a9.26,9.26,0,0,0-1.24.1,9.44,9.44,0,0,1-1,.11q-1.16,0-1.16-.6a.46.46,0,0,1,.28-.4,5.18,5.18,0,0,1,.86-.35,6.83,6.83,0,0,0,.79-.3l.32-.14.24-.14.21-.16.16-.12a.48.48,0,0,0,.12-.17.81.81,0,0,1,.11-.18,1.08,1.08,0,0,0,.12-.23,2,2,0,0,0,.11-.26,3.21,3.21,0,0,1,.12-.33,3.33,3.33,0,0,0,.14-.4l5.36-14.8.28-.77.21-.58c0-.13.09-.25.14-.35a.61.61,0,0,1,.16-.23.31.31,0,0,1,.19-.07,1.67,1.67,0,0,0,.91-.54,2.73,2.73,0,0,1,.6-.51.47.47,0,0,1,.31.12,1.18,1.18,0,0,1,.26.38c.08.17.15.34.21.51s.14.41.25.74.19.58.26.77L506.17,473a18.24,18.24,0,0,0,1.36,3.13,3.37,3.37,0,0,0,1.75,1.28q1.4.49,1.4,1.08t-1,.56c-.23,0-.72,0-1.47-.11S506.87,478.83,506.45,478.83Zm-10-9.38a.93.93,0,0,0-.16.58c0,.1.19.16.47.16h4.27q.52,0,.59-.21a2.37,2.37,0,0,0-.21-1l-2.13-6.54q-.14-.49-.38.1Z" transform="translate(-100.87 -82.62)"/><path class="cls-3" d="M520.17,461.29q0-1.09-.56-1.08h-4.27a1.37,1.37,0,0,0-.91.25,3.09,3.09,0,0,0-.6.8,5,5,0,0,0-.26.54q-.16.37-.26.58a1.72,1.72,0,0,1-.26.38.45.45,0,0,1-.33.17q-.63,0-.63-.8a7.6,7.6,0,0,1,.09-1,9,9,0,0,0,.09-1.22c0-.21,0-.5,0-.87s0-.61,0-.7a1.08,1.08,0,0,1,.17-.61.5.5,0,0,1,.42-.26,7.55,7.55,0,0,1,1.16.53,4.8,4.8,0,0,0,2.17.52h12.21a5,5,0,0,0,2.45-.59,1.83,1.83,0,0,0,.33-.23,1.61,1.61,0,0,1,.35-.23.82.82,0,0,1,.33-.07.59.59,0,0,1,.46.19.63.63,0,0,1,.17.44q0,.1-.07.58a6.31,6.31,0,0,0-.07.93q0,.49,0,1.38c0,.6,0,.94,0,1q0,.81-.49.8t-1.26-1.58q-.6-1-1.26-1h-5.43q-.42,0-.42,1.08v13.58a2.77,2.77,0,0,0,.38,1.56,2.82,2.82,0,0,0,1.26,1,6.83,6.83,0,0,0,.79.3,5.26,5.26,0,0,1,.86.35.46.46,0,0,1,.28.4q0,.49-1.12.6l-.79-.05-1.72-.11q-1-.05-1.73-.05t-1.66.05l-1.58.11-.72.05q-1.15-.11-1.15-.6a.46.46,0,0,1,.28-.4,5.24,5.24,0,0,1,.86-.35,6.83,6.83,0,0,0,.79-.3,2.82,2.82,0,0,0,1.26-1,2.77,2.77,0,0,0,.38-1.56Z" transform="translate(-100.87 -82.62)"/><path class="cls-3" d="M556.47,474.45a3.08,3.08,0,0,0,1.65,2.94,6.83,6.83,0,0,0,.79.3,5.26,5.26,0,0,1,.86.35.46.46,0,0,1,.28.4q0,.49-1.12.6l-.79-.05-1.72-.11q-1-.05-1.73-.05t-1.66.05l-1.58.11-.72.05q-1.15-.11-1.15-.6a.46.46,0,0,1,.28-.4,5.24,5.24,0,0,1,.86-.35,6.83,6.83,0,0,0,.79-.3,2.75,2.75,0,0,0,1.64-2.94l-.45-11q0-.59-.46-.42a1.26,1.26,0,0,0-.46.53l-4.73,10.85q-.28.63-1,2t-.93,1.35c-.19,0-.37-.14-.56-.42a11.07,11.07,0,0,1-.81-1.75l-4.3-11a1.89,1.89,0,0,0-.44-.77c-.13-.09-.23-.06-.3.09a2.23,2.23,0,0,0-.14.72l-.59,9.76a5.34,5.34,0,0,0,.19,1.84,1.75,1.75,0,0,0,.89,1.24,6.83,6.83,0,0,0,.79.3,5.26,5.26,0,0,1,.86.35.46.46,0,0,1,.28.4q0,.49-1.12.6l-.59-.05-1.33-.11q-.81-.05-1.54-.05t-1.47.05l-1.21.11-.54.05q-1.16-.11-1.16-.6a.47.47,0,0,1,.26-.4,4.46,4.46,0,0,1,.86-.35,6.63,6.63,0,0,0,.8-.3q1.61-.7,2-3.67l1.19-9.31a5.84,5.84,0,0,0-.07-2.49,3.77,3.77,0,0,0-1-1.47,4.59,4.59,0,0,0-.74-.54,6.56,6.56,0,0,1-.84-.61.76.76,0,0,1-.32-.53q0-.49,1.19-.49.59,0,1.82.09t2.07.09a1.65,1.65,0,0,1,1.21.51,5.32,5.32,0,0,1,1,1.7l4.09,10a2.83,2.83,0,0,0,.21.49,1.53,1.53,0,0,0,.19.23c.08.08.18.06.3-.07a2.58,2.58,0,0,0,.38-.68l5.5-11.41a1.26,1.26,0,0,1,.63-.68,3.88,3.88,0,0,1,1.16-.12q.42,0,2.13-.17t2.31-.18c.37,0,.56.2.56.6a.46.46,0,0,1-.26.4q-.26.16-1.42.65a2,2,0,0,0-1.14,1,5,5,0,0,0-.23,2.13Z" transform="translate(-100.87 -82.62)"/><path class="cls-3" d="M567.63,466.51q0,1.09.81,1.08h3a2.84,2.84,0,0,0,.93-.14,2,2,0,0,0,.59-.3l.61-.54.33-.37a2.35,2.35,0,0,1,.4-.38.6.6,0,0,1,.35-.12c.26,0,.38.23.38.7q0,.11-.07.93t-.07,1.1q0,.28,0,1t0,.95q0,.91-.46.91a.46.46,0,0,1-.28-.11,1.2,1.2,0,0,1-.26-.28l-.21-.31-.21-.37a1.73,1.73,0,0,0-.16-.26,1.39,1.39,0,0,0-1.22-.74h-3.68a.68.68,0,0,0-.84.84V476a1.52,1.52,0,0,0,.3,1,1.34,1.34,0,0,0,1,.33h4.9a6.84,6.84,0,0,0,1.61-.16,2.22,2.22,0,0,0,1.12-.7,5.59,5.59,0,0,0,.72-.95q.23-.4.72-1.45a1,1,0,0,1,.94-.67q.49,0,.49.88a7.17,7.17,0,0,1-.52,2.12,12.52,12.52,0,0,1-.81,1.91l-.25.42a.52.52,0,0,1-.24.17,1.24,1.24,0,0,1-.46.07l-4.76-.09q-4.41-.09-6.58-.09c-.49,0-1,0-1.66,0s-1.14.05-1.58.09l-.72.05q-1.16-.11-1.16-.6a.46.46,0,0,1,.28-.4,5.18,5.18,0,0,1,.86-.35,6.83,6.83,0,0,0,.79-.3,2.82,2.82,0,0,0,1.26-1,2.77,2.77,0,0,0,.38-1.56V462.1q0-.31,0-.58a1.4,1.4,0,0,0-.12-.49c-.07-.15-.12-.27-.16-.37a.65.65,0,0,0-.26-.28,2.07,2.07,0,0,1-.28-.21,1.4,1.4,0,0,0-.4-.19l-.46-.16-.56-.16-.61-.16c-.37-.12-.56-.32-.56-.59s.41-.63,1.23-.63h10q.84,0,2.4-.09l1.77-.09q.8,0,.91.49a11.88,11.88,0,0,1,.32,2.87c0,.61-.19.91-.56.91s-.86-.44-1.26-1.33-1.32-1.16-2.83-1.16h-4.17a1.49,1.49,0,0,0-.87.17.69.69,0,0,0-.21.56Z" transform="translate(-100.87 -82.62)"/><path class="cls-3" d="M585.79,474.45a2.89,2.89,0,0,0,1.65,2.94,6.83,6.83,0,0,0,.79.3,5.26,5.26,0,0,1,.86.35.46.46,0,0,1,.28.4q0,.49-1.12.6l-.59-.05-1.33-.11q-.81-.05-1.54-.05t-1.47.05l-1.21.11-.54.05q-1.16-.11-1.16-.6a.46.46,0,0,1,.28-.4,5.22,5.22,0,0,1,.86-.35,6.83,6.83,0,0,0,.79-.3,2.89,2.89,0,0,0,1.65-2.94v-9.14q0-2.8-.49-3.39l-1.29-1.4a4.2,4.2,0,0,0-.86-.63q-.54-.31-.89-.54a.63.63,0,0,1-.35-.51q0-.39.74-.38h3.67q.7,0,1.86,1.26L598,472.81a1.9,1.9,0,0,0,.46.4.36.36,0,0,0,.37,0c.1-.06.16-.2.16-.44V462.1a4,4,0,0,0-.05-.68c0-.2-.07-.37-.1-.51a.78.78,0,0,0-.25-.39,2.69,2.69,0,0,1-.26-.26,1.21,1.21,0,0,0-.42-.23l-.47-.18-.63-.17-.68-.17c-.37-.12-.56-.32-.56-.59s.13-.34.38-.46a2,2,0,0,1,.84-.17q.7,0,1.63.09t1.56.09q.63,0,1.59-.09t1.56-.09a2,2,0,0,1,.84.17q.39.18.38.46c0,.28-.17.48-.52.59l-.61.17-.56.14-.46.14a1.46,1.46,0,0,0-.4.19l-.3.21a.65.65,0,0,0-.26.28l-.16.37a1.9,1.9,0,0,0-.12.47,4.68,4.68,0,0,0,0,.61v14q0,.91.05,1.7c0,.52.05.92.05,1.17s-.23.42-.7.42a2.85,2.85,0,0,1-1.21-.56,9.76,9.76,0,0,1-1.77-1.54l-10.88-12.08q-.67-.74-.67.35Z" transform="translate(-100.87 -82.62)"/><path class="cls-3" d="M613.23,461.29q0-1.09-.56-1.08h-4.27a1.37,1.37,0,0,0-.91.25,3.09,3.09,0,0,0-.6.8,5,5,0,0,0-.26.54q-.16.37-.26.58a1.72,1.72,0,0,1-.26.38.45.45,0,0,1-.33.17q-.63,0-.63-.8a7.6,7.6,0,0,1,.09-1,9,9,0,0,0,.09-1.22c0-.21,0-.5,0-.87s0-.61,0-.7a1.08,1.08,0,0,1,.17-.61.5.5,0,0,1,.42-.26A7.55,7.55,0,0,1,607,458a4.8,4.8,0,0,0,2.17.52h12.21a5,5,0,0,0,2.45-.59,1.83,1.83,0,0,0,.33-.23,1.61,1.61,0,0,1,.35-.23.82.82,0,0,1,.33-.07.59.59,0,0,1,.46.19.63.63,0,0,1,.17.44q0,.1-.07.58a6.31,6.31,0,0,0-.07.93q0,.49,0,1.38c0,.6,0,.94,0,1q0,.81-.49.8t-1.26-1.58q-.6-1-1.26-1H617q-.42,0-.42,1.08v13.58a2.77,2.77,0,0,0,.38,1.56,2.82,2.82,0,0,0,1.26,1,6.83,6.83,0,0,0,.79.3,5.26,5.26,0,0,1,.86.35.46.46,0,0,1,.28.4q0,.49-1.12.6l-.79-.05-1.72-.11q-1-.05-1.73-.05t-1.66.05l-1.58.11-.72.05q-1.15-.11-1.15-.6a.46.46,0,0,1,.28-.4,5.24,5.24,0,0,1,.86-.35,6.84,6.84,0,0,0,.79-.3,2.82,2.82,0,0,0,1.26-1,2.77,2.77,0,0,0,.38-1.56Z" transform="translate(-100.87 -82.62)"/><text x="-100.87" y="-82.62"></text><text x="-100.87" y="-82.62"></text><text x="-100.87" y="-82.62"></text><text x="-100.87" y="-82.62"></text><path class="cls-4" d="M208.8,539.8l-.44-21.12L198,536.75h-.44l-10.41-18.1-.36,21.16h-3.22l1.11-30.38.6-.08,12.63,22.51,12.32-22.51.64.08L212,539.8Z" transform="translate(-100.87 -82.62)"/><path class="cls-4" d="M238.24,539.8l-3.46-8.28h-13l-3.46,8.28H215l13.07-30.42h.52l13.07,30.42Zm-10-23.85L222.9,528.8h10.73Z" transform="translate(-100.87 -82.62)"/><path class="cls-4" d="M261.24,539.8,253.49,528l-1,.06-1,0-1.65,0q-.93,0-1.65-.06V539.8h-3.18V510.2q1.63-.2,3.26-.35t3.46-.14a16.25,16.25,0,0,1,4.93.67,9.86,9.86,0,0,1,3.5,1.88,7.67,7.67,0,0,1,2.09,2.85,9.11,9.11,0,0,1,.7,3.57,8.91,8.91,0,0,1-1.63,5.38,9.16,9.16,0,0,1-4.73,3.26l8.46,12.48Zm-1.67-20.92a6.28,6.28,0,0,0-.48-2.45,5.55,5.55,0,0,0-1.39-2,6.67,6.67,0,0,0-2.28-1.32,9.37,9.37,0,0,0-3.16-.49q-1,0-2.13.06a10,10,0,0,0-1.89.26v12.15q.72.08,1.71.14t1.83.06q4.09,0,5.94-1.75A6.16,6.16,0,0,0,259.57,518.89Z" transform="translate(-100.87 -82.62)"/><path class="cls-4" d="M268.83,539.8V509.92H272V539.8Z" transform="translate(-100.87 -82.62)"/><path class="cls-4" d="M300.65,540.38l-18.91-23.24V539.8h-3.18V509.51l.64-.16,18.67,22.87v-22.3h3.18v30.34Z" transform="translate(-100.87 -82.62)"/><path class="cls-4" d="M367.24,531.73a8.38,8.38,0,0,1-.68,3.38,8.45,8.45,0,0,1-4.69,4.53,9.42,9.42,0,0,1-3.54.65,13,13,0,0,1-4.51-.73,17.66,17.66,0,0,1-3.91-2l1.55-2.85a15.35,15.35,0,0,0,3.5,1.94,9.69,9.69,0,0,0,3.54.71,6.3,6.3,0,0,0,2.42-.43,4.74,4.74,0,0,0,1.71-1.16,4.9,4.9,0,0,0,1-1.67,5.74,5.74,0,0,0,.34-2,6.38,6.38,0,0,0-.24-1.79,4.27,4.27,0,0,0-.85-1.55,7.45,7.45,0,0,0-1.75-1.45,25.12,25.12,0,0,0-2.92-1.53A22.23,22.23,0,0,1,355,524a9.58,9.58,0,0,1-2.13-1.88,6.76,6.76,0,0,1-1.19-2.12,8,8,0,0,1,.26-5.57,7.89,7.89,0,0,1,1.81-2.59,8.87,8.87,0,0,1,2.82-1.79,9.52,9.52,0,0,1,3.64-.67,10.86,10.86,0,0,1,3.54.57,11.57,11.57,0,0,1,2.94,1.47l-1.43,2.77a9.47,9.47,0,0,0-2.44-1.32,8,8,0,0,0-2.8-.51,6.64,6.64,0,0,0-2.4.41,4.94,4.94,0,0,0-1.73,1.08,4.54,4.54,0,0,0-1,1.59,5.3,5.3,0,0,0-.36,1.94,4.26,4.26,0,0,0,1.13,2.85,11.61,11.61,0,0,0,3.83,2.57,34.37,34.37,0,0,1,3.77,2,11,11,0,0,1,2.4,2,5.93,5.93,0,0,1,1.25,2.2A9.3,9.3,0,0,1,367.24,531.73Z" transform="translate(-100.87 -82.62)"/><path class="cls-4" d="M400.1,524.88a15.79,15.79,0,0,1-1.19,6.18,15.59,15.59,0,0,1-3.2,4.89,14.36,14.36,0,0,1-4.67,3.2,14.07,14.07,0,0,1-5.6,1.14,13.79,13.79,0,0,1-5.56-1.14,14,14,0,0,1-4.59-3.2,15.11,15.11,0,0,1-3.1-4.89,16.5,16.5,0,0,1-1.13-6.18,15.88,15.88,0,0,1,1.19-6.22,15.34,15.34,0,0,1,3.2-4.87,14.77,14.77,0,0,1,4.67-3.2,13.86,13.86,0,0,1,5.6-1.16,13.58,13.58,0,0,1,5.56,1.16,14.44,14.44,0,0,1,4.59,3.2,14.88,14.88,0,0,1,3.1,4.87A16.62,16.62,0,0,1,400.1,524.88Zm-3.46,0a14.61,14.61,0,0,0-.81-4.93,12.3,12.3,0,0,0-2.28-4,10.57,10.57,0,0,0-3.5-2.65,10.29,10.29,0,0,0-4.45-1,10.4,10.4,0,0,0-8,3.61,12.28,12.28,0,0,0-2.28,4,15.36,15.36,0,0,0,0,9.87,12.26,12.26,0,0,0,2.28,4,10.4,10.4,0,0,0,8,3.61,10.27,10.27,0,0,0,4.45-1,10.55,10.55,0,0,0,3.5-2.65,12.28,12.28,0,0,0,2.28-4A14.6,14.6,0,0,0,396.65,524.88Z" transform="translate(-100.87 -82.62)"/><path class="cls-4" d="M427.56,540.38l-18.91-23.24V539.8h-3.18V509.51l.64-.16,18.67,22.87v-22.3H428v30.34Z" transform="translate(-100.87 -82.62)"/><path class="cls-4" d="M462.36,524.88a15.77,15.77,0,0,1-1.19,6.18A15.57,15.57,0,0,1,458,536a14.36,14.36,0,0,1-4.67,3.2,14.08,14.08,0,0,1-5.6,1.14,13.79,13.79,0,0,1-5.56-1.14,14,14,0,0,1-4.59-3.2,15.1,15.1,0,0,1-3.1-4.89,16.5,16.5,0,0,1-1.13-6.18,15.87,15.87,0,0,1,1.19-6.22,15.34,15.34,0,0,1,3.2-4.87,14.76,14.76,0,0,1,4.67-3.2,13.85,13.85,0,0,1,5.6-1.16,13.58,13.58,0,0,1,5.56,1.16,14.42,14.42,0,0,1,4.59,3.2,14.87,14.87,0,0,1,3.1,4.87A16.62,16.62,0,0,1,462.36,524.88Zm-3.46,0a14.59,14.59,0,0,0-.81-4.93,12.3,12.3,0,0,0-2.28-4,10.58,10.58,0,0,0-3.5-2.65,10.29,10.29,0,0,0-4.45-1,10.4,10.4,0,0,0-8,3.61,12.28,12.28,0,0,0-2.28,4,15.35,15.35,0,0,0,0,9.87,12.26,12.26,0,0,0,2.28,4,10.4,10.4,0,0,0,8,3.61,10.28,10.28,0,0,0,4.45-1,10.55,10.55,0,0,0,3.5-2.65,12.28,12.28,0,0,0,2.28-4A14.58,14.58,0,0,0,458.9,524.88Z" transform="translate(-100.87 -82.62)"/><path class="cls-4" d="M492.52,539.8l-.44-21.12-10.33,18.06h-.44l-10.41-18.1-.36,21.16h-3.22l1.11-30.38.6-.08,12.64,22.51L494,509.35l.64.08,1.11,30.38Z" transform="translate(-100.87 -82.62)"/><path class="cls-4" d="M522,539.8l-3.46-8.28h-13L502,539.8h-3.3l13.07-30.42h.52l13.07,30.42ZM512,516l-5.36,12.84h10.73Z" transform="translate(-100.87 -82.62)"/><path class="cls-4" d="M597.53,537.44a21.16,21.16,0,0,1-4.23,2,16.07,16.07,0,0,1-5.38.88,16.39,16.39,0,0,1-6.2-1.14,14.4,14.4,0,0,1-8.1-8.09,16.23,16.23,0,0,1-1.15-6.18,15.89,15.89,0,0,1,1.17-6.14,14.82,14.82,0,0,1,3.24-4.89,15.07,15.07,0,0,1,4.91-3.24,15.81,15.81,0,0,1,6.14-1.18,16.1,16.1,0,0,1,5.38.88,21.27,21.27,0,0,1,4.23,2l-1.31,2.77a20.4,20.4,0,0,0-4.17-1.83,14.54,14.54,0,0,0-4.41-.73,12.38,12.38,0,0,0-4.93.94A10.47,10.47,0,0,0,579,516a11.44,11.44,0,0,0-2.3,3.94,14.71,14.71,0,0,0-.8,4.91,14.1,14.1,0,0,0,.83,4.91,11.26,11.26,0,0,0,2.4,3.91,11.1,11.1,0,0,0,3.79,2.59,12.65,12.65,0,0,0,5,.94,14.52,14.52,0,0,0,4.41-.73,20.36,20.36,0,0,0,4.17-1.83Z" transform="translate(-100.87 -82.62)"/><path class="cls-4" d="M622.08,539.8l-3.46-8.28h-13l-3.46,8.28h-3.3l13.07-30.42h.52L625.5,539.8Zm-10-23.85-5.36,12.84h10.73Z" transform="translate(-100.87 -82.62)"/><line class="cls-5" x1="222.74" y1="426.85" x2="222.74" y2="457.88"/><line class="cls-5" x1="447.35" y1="426.85" x2="447.35" y2="457.88"/></svg>