<?xml version="1.0" encoding="UTF-8"?>
<svg width="699px" height="699px" viewBox="0 0 699 699" version="1.1" xmlns="http://www.w3.org/2000/svg" xmlns:xlink="http://www.w3.org/1999/xlink">
    <!-- Generator: Sketch 45.1 (43504) - http://www.bohemiancoding.com/sketch -->
    <title>Group</title>
    <desc>Created with Sketch.</desc>
    <defs></defs>
    <g id="Page-1" stroke="none" stroke-width="1" fill="none" fill-rule="evenodd">
        <g id="Group" transform="translate(0.598554, 0.428454)" fill-rule="nonzero" fill="#FFFFFF">
            <path d="M280.880217,0.101560571 C126.268589,0.101560571 0.0188474998,126.351893 0.0188474998,280.962926 C0.0188474998,435.572682 126.268589,561.824122 280.880217,561.824122 C342.942068,561.824122 400.518648,541.65402 447.109293,507.30042 L625.308136,685.498445 C641.924915,702.115225 668.798242,702.116076 685.415872,685.498445 C702.033503,668.880814 702.033503,642.007488 685.415872,625.389857 L507.218724,447.191832 C541.571473,400.601187 561.741574,343.024607 561.741574,280.962926 C561.741574,126.351723 435.490986,0.101560571 280.880209,0.101560571 L280.880217,0.101560571 Z M280.880217,85.2110653 C389.492712,85.2110653 476.632078,172.349155 476.632078,280.962926 C476.632078,389.576101 389.492712,476.714617 280.880217,476.714617 C172.266872,476.714617 85.1283565,389.576101 85.1283565,280.962926 C85.1283565,172.348985 172.266872,85.2110653 280.880217,85.2110653 Z" id="Shape"></path>
        </g>
    </g>
</svg>