<?xml version="1.0" encoding="UTF-8"?>
<svg width="1007px" height="1092px" viewBox="0 0 1007 1092" version="1.1" xmlns="http://www.w3.org/2000/svg" xmlns:xlink="http://www.w3.org/1999/xlink">
    <!-- Generator: Sketch 45.1 (43504) - http://www.bohemiancoding.com/sketch -->
    <title>noun_921503_cc</title>
    <desc>Created with Sketch.</desc>
    <defs></defs>
    <g id="Page-1" stroke="none" stroke-width="1" fill="none" fill-rule="evenodd">
        <g id="noun_921503_cc" transform="translate(0.000000, -141.000000)">
            <g id="Group" transform="translate(181.093788, 141.164816)" fill-rule="nonzero" fill="#FFFFFF">
                <path d="M307.947777,837.094991 C332.152508,860.062984 557.415512,1058.4711 747.696497,645.577268 C961.475505,232.860109 665.895108,169.786468 647.697391,166.252931 C642.397085,164.839516 636.566748,166.782961 633.033211,171.37656 C632.679857,171.729914 533.740812,302.117441 568.192801,359.007392 C590.630763,395.75618 631.619796,409.360298 656.531234,414.483928 L584.977103,556.532128 L584.800426,556.708805 L512.186234,697.166913 C493.635163,680.029257 458.476467,654.587788 415.543989,658.121326 C349.290164,663.598309 301.764087,820.310689 301.58741,820.840719 C299.643965,827.201086 302.294118,833.73813 307.771101,837.094991 L307.947777,837.094991 Z" id="Shape"></path>
                <path d="M36.7487881,742.042837 C39.575618,749.286589 47.5260769,752.996803 54.9465053,750.34665 C62.1902568,747.51982 65.900471,739.569361 63.250318,732.148933 C37.1021419,662.891601 25.088115,588.333964 29.1516829,513.422972 C33.0385739,441.338811 51.7663217,368.901296 86.7483412,300.527349 C121.730361,231.976725 169.256438,174.20339 225.263004,128.797435 C283.389693,81.4480352 350.703579,47.3494001 422.081033,27.738268 C429.501461,25.6181456 433.918383,18.0210403 431.974937,10.4239351 C429.854815,3.00350672 422.25771,-1.41341493 414.660604,0.530030598 C339.39626,21.024547 268.725513,57.0666277 207.418641,106.889504 C148.408567,154.945611 98.2323375,215.722453 61.4835494,287.629938 C24.7347612,359.714099 5.12362911,436.038505 0.88338433,512.009558 C-3.35686045,590.80744 9.01052016,669.251968 36.7487881,742.042837 Z" id="Shape"></path>
                <path d="M173.320006,650.347544 C176.146835,657.591295 184.097294,661.301509 191.517723,658.651356 C198.761474,655.824526 202.471688,647.874067 199.821535,640.453639 C183.037233,596.461099 175.616805,548.935023 178.090281,501.232269 C180.563757,455.47296 192.577784,409.360298 214.662392,365.721113 C236.923677,322.081927 267.135421,285.333139 302.824148,256.358133 C339.92629,226.146388 382.682092,204.415134 428.088046,192.047753 C435.508475,189.927631 439.925396,182.330526 437.981951,174.73342 C435.861828,167.312992 428.264723,162.89607 420.667618,164.839516 C371.374772,178.266958 325.085433,201.764981 284.979785,234.450201 C246.287551,265.898683 213.425654,305.650978 189.3976,352.823701 C165.369547,399.996425 152.472135,449.995978 149.821982,499.642177 C146.995152,551.231822 155.122288,602.468113 173.320006,650.170867 L173.320006,650.347544 Z" id="Shape"></path>
                <path d="M304.944271,651.054251 C307.771101,658.298003 315.721559,662.008217 323.141988,659.358064 C330.385739,656.531234 334.095954,648.580775 331.445801,641.160347 C318.725066,607.415065 312.89473,571.196308 314.838175,534.624196 C316.781621,499.642177 325.792141,464.306804 342.929797,430.914876 C359.890776,397.522948 383.035445,369.431327 410.243683,347.346718 C438.511981,324.378726 471.373878,307.594424 506.002544,298.23055 C513.422972,296.110427 517.839894,288.513322 515.896449,280.916217 C513.776326,273.495789 506.179221,269.078867 498.582116,271.022312 C460.066559,281.446247 423.847801,299.997318 392.399319,325.438787 C362.187575,349.996871 336.392753,381.268677 317.665005,418.017465 C298.937257,454.94293 288.866676,493.988517 286.746553,533.034105 C284.626431,573.493107 290.986798,613.598755 305.120948,650.877574 L304.944271,651.054251 Z" id="Shape"></path>
            </g>
            <rect id="Rectangle-path" x="0" y="0" width="1187.26854" height="1187.26854"></rect>
            <text id="Created-by-IYIKON" fill="#000000" font-family="Helvetica-Bold, Helvetica" font-size="5" font-weight="bold">
                <tspan x="0" y="1194.03531">Cr</tspan>
                <tspan x="0" y="1200.03531">eat</tspan>
                <tspan x="0" y="1206.03531">ed </tspan>
                <tspan x="0" y="1212.03531">by </tspan>
                <tspan x="0" y="1218.03531">IYI</tspan>
                <tspan x="0" y="1224.03531">KO</tspan>
                <tspan x="0" y="1230.03531">N</tspan>
            </text>
            <text id="from-the-Noun-Project" fill="#000000" font-family="Helvetica-Bold, Helvetica" font-size="5" font-weight="bold">
                <tspan x="0" y="1194.91869">fro</tspan>
                <tspan x="0" y="1200.91869">m </tspan>
                <tspan x="0" y="1206.91869">the </tspan>
                <tspan x="0" y="1212.91869">No</tspan>
                <tspan x="0" y="1218.91869">un </tspan>
                <tspan x="0" y="1224.91869">Pro</tspan>
                <tspan x="0" y="1230.91869">ject</tspan>
            </text>
        </g>
    </g>
</svg>